Coordinates
version=1
nRows=43
nColumns=12
inDegrees=yes

Units are S.I. units (second, meters, Newtons, ...)
Angles are in degrees

endheader
time	SC_y	SC_z	SC_x	AC_y	AC_z	AC_x	GH_y	GH_z	GH_yy	EL_x	PS_y
       0.0              -38.15           31.9          52.95          37.26        -0.2951          7.819         -120.9         -11.72         -72.82          75.19          104.9
   0.04344              -38.14           31.9          52.95          37.26        -0.2978          7.816         -120.8         -11.72         -72.82          75.19          104.9
   0.08688              -38.14           31.9          52.95          37.27        -0.3007          7.813         -120.8         -11.72         -72.83           75.2          104.9
    0.1303              -38.14           31.9          52.95          37.27        -0.3037           7.81         -120.7         -11.72         -72.83           75.2          104.9
    0.1738              -38.14           31.9          52.95          37.28         -0.307          7.807         -120.7         -11.72         -72.83           75.2          104.9
    0.2172              -38.13           31.9          52.95          37.28        -0.3105          7.803         -120.6         -11.73         -72.84           75.2          104.9
    0.2606              -38.13           31.9          52.95          37.29        -0.3142          7.799         -120.6         -11.73         -72.84          75.21          105.0
    0.3041              -38.13           31.9          52.95          37.29        -0.3182          7.795         -120.5         -11.73         -72.85          75.21          105.0
    0.3475              -38.13           31.9          52.95           37.3        -0.3224          7.791         -120.4         -11.73         -72.85          75.21          105.0
     0.391              -38.12           31.9          52.95          37.31         -0.327          7.786         -120.4         -11.73         -72.86          75.22          105.0
    0.4344              -38.12          31.89          52.95          37.31        -0.3319          7.781         -120.3         -11.73         -72.87          75.22          105.0
    0.4778              -38.12          31.89          52.95          37.32        -0.3372          7.775         -120.2         -11.73         -72.87          75.22          105.0
    0.5213              -38.11          31.89          52.96          37.33        -0.3429          7.769         -120.1         -11.73         -72.88          75.23          105.0
    0.5647              -38.11          31.89          52.96          37.34         -0.349          7.763         -120.0         -11.74         -72.89          75.23          105.0
    0.6082               -38.1          31.89          52.96          37.35        -0.3557          7.756         -119.9         -11.74          -72.9          75.24          105.0
    0.6516               -38.1          31.89          52.96          37.36        -0.3629          7.748         -119.8         -11.74         -72.91          75.24          105.1
     0.695              -38.09          31.88          52.96          37.37        -0.3707           7.74         -119.7         -11.74         -72.92          75.25          105.1
    0.7385              -38.09          31.88          52.96          37.38        -0.3792          7.731         -119.5         -11.74         -72.93          75.26          105.1
    0.7819              -38.08          31.88          52.96          37.39        -0.3886          7.722         -119.4         -11.75         -72.94          75.26          105.1
    0.8254              -38.07          31.88          52.96          37.41        -0.3988          7.711         -119.2         -11.75         -72.95          75.27          105.1
    0.8688              -38.06          31.88          52.96          37.42          -0.41          7.699         -119.0         -11.75         -72.97          75.28          105.1
    0.9122              -38.06          31.87          52.97          37.44        -0.4223          7.686         -118.8         -11.76         -72.98          75.29          105.2
    0.9557              -38.05          31.87          52.97          37.46         -0.436          7.672         -118.6         -11.76          -73.0           75.3          105.2
    0.9991              -38.04          31.86          52.97          37.48        -0.4511          7.656         -118.4         -11.76         -73.02          75.31          105.2
     1.043              -38.02          31.86          52.97          37.51        -0.4678          7.639         -118.1         -11.77         -73.04          75.32          105.3
     1.086              -38.01          31.86          52.98          37.53        -0.4866          7.619         -117.8         -11.77         -73.07          75.34          105.3
     1.129               -38.0          31.85          52.98          37.56        -0.5075          7.597         -117.5         -11.78         -73.09          75.35          105.3
     1.173              -37.98          31.84          52.98           37.6        -0.5311          7.573         -117.1         -11.78         -73.12          75.37          105.4
     1.216              -37.96          31.84          52.99          37.63        -0.5578          7.545         -116.7         -11.79         -73.16          75.39          105.4
      1.26              -37.94          31.83          52.99          37.68        -0.5881          7.513         -116.2          -11.8          -73.2          75.41          105.5
     1.303              -37.91          31.82          52.99          37.73        -0.6227          7.477         -115.6         -11.81         -73.24          75.44          105.6
     1.347              -37.89          31.81           53.0          37.78        -0.6623          7.436         -115.0         -11.82         -73.29          75.47          105.7
      1.39              -37.85           31.8          53.01          37.85        -0.7081          7.388         -114.2         -11.83         -73.35           75.5          105.7
     1.434              -37.82          31.79          53.01          37.92        -0.7613          7.333         -113.4         -11.84         -73.42          75.54          105.9
     1.477              -37.77          31.77          53.02          38.01        -0.8236          7.268         -112.4         -11.86          -73.5          75.59          106.0
      1.52              -37.72          31.75          53.03          38.12         -0.897          7.191         -111.2         -11.88         -73.59          75.65          106.1
     1.564              -37.66          31.73          53.04          38.24        -0.9842            7.1         -109.8          -11.9         -73.71          75.71          106.3
     1.607              -37.59           31.7          53.06          38.39         -1.089          6.991         -108.1         -11.93         -73.84          75.79          106.5
     1.651               -37.5          31.67          53.08          38.57         -1.215          6.859         -106.1         -11.96          -74.0          75.89          106.8
     1.694              -37.39          31.63           53.1          38.79          -1.37          6.697         -103.6         -12.01          -74.2           76.0          107.1
     1.738              -37.26          31.59          53.12          39.06          -1.56          6.498         -100.6         -12.06         -74.45          76.15          107.5
     1.781              -37.09          31.53          53.16           39.4         -1.798           6.25         -96.76         -12.12         -74.75          76.33          107.9
     1.824              -36.88          31.45           53.2          39.82         -2.098          5.938         -91.96          -12.2         -75.14          76.55          108.5
